<svg width="169" height="24" viewBox="0 0 169 24" fill="none" xmlns="http://www.w3.org/2000/svg">
<path d="M160.906 23.392C159.285 23.392 157.877 23.0613 156.682 22.4C155.488 21.7387 154.56 20.8 153.898 19.584C153.237 18.3467 152.906 16.896 152.906 15.232C152.906 13.9733 153.088 12.8533 153.45 11.872C153.834 10.8693 154.378 10.016 155.082 9.312C155.786 8.58666 156.629 8.04266 157.61 7.67999C158.592 7.296 159.69 7.104 160.906 7.104C162.528 7.104 163.936 7.43466 165.13 8.09599C166.325 8.75733 167.253 9.696 167.914 10.912C168.576 12.128 168.906 13.568 168.906 15.232C168.906 16.4907 168.714 17.6213 168.33 18.624C167.968 19.6267 167.434 20.4907 166.73 21.216C166.026 21.92 165.184 22.464 164.202 22.848C163.221 23.2107 162.122 23.392 160.906 23.392ZM160.906 20.352C161.696 20.352 162.389 20.16 162.986 19.776C163.584 19.392 164.042 18.8267 164.362 18.08C164.704 17.312 164.874 16.3627 164.874 15.232C164.874 13.5253 164.512 12.256 163.786 11.424C163.061 10.5707 162.101 10.144 160.906 10.144C160.117 10.144 159.424 10.336 158.826 10.72C158.229 11.0827 157.76 11.648 157.418 12.416C157.098 13.1627 156.938 14.1013 156.938 15.232C156.938 16.9173 157.301 18.1973 158.026 19.072C158.752 19.9253 159.712 20.352 160.906 20.352Z" fill="white"/>
<path d="M147.598 23.296C146.958 23.296 146.467 23.104 146.126 22.72C145.785 22.336 145.614 21.8027 145.614 21.12V9.376C145.614 8.672 145.785 8.13867 146.126 7.776C146.467 7.392 146.958 7.2 147.598 7.2C148.238 7.2 148.729 7.392 149.07 7.776C149.433 8.13867 149.614 8.672 149.614 9.376V21.12C149.614 21.8027 149.443 22.336 149.102 22.72C148.761 23.104 148.259 23.296 147.598 23.296ZM147.598 4.224C146.851 4.224 146.265 4.04267 145.838 3.68C145.433 3.296 145.23 2.77333 145.23 2.112C145.23 1.42933 145.433 0.906666 145.838 0.543999C146.265 0.181333 146.851 0 147.598 0C148.366 0 148.953 0.181333 149.358 0.543999C149.763 0.906666 149.966 1.42933 149.966 2.112C149.966 2.77333 149.763 3.296 149.358 3.68C148.953 4.04267 148.366 4.224 147.598 4.224Z" fill="white"/>
<path d="M139.596 23.232C138.871 23.232 138.285 23.008 137.837 22.56C137.41 22.112 137.197 21.536 137.197 20.832C137.197 20.1493 137.41 19.5947 137.837 19.168C138.285 18.72 138.871 18.496 139.596 18.496C140.343 18.496 140.919 18.72 141.324 19.168C141.751 19.5947 141.964 20.1493 141.964 20.832C141.964 21.536 141.751 22.112 141.324 22.56C140.919 23.008 140.343 23.232 139.596 23.232Z" fill="white"/>
<path d="M128.045 23.392C126.274 23.392 124.749 23.0613 123.469 22.4C122.189 21.7387 121.197 20.8 120.493 19.584C119.81 18.368 119.469 16.928 119.469 15.264C119.469 13.6427 119.799 12.224 120.461 11.008C121.143 9.792 122.071 8.84266 123.245 8.16C124.439 7.456 125.794 7.104 127.309 7.104C128.418 7.104 129.41 7.28533 130.285 7.648C131.181 8.01066 131.938 8.53333 132.557 9.216C133.197 9.89866 133.677 10.7307 133.997 11.712C134.338 12.672 134.509 13.76 134.509 14.976C134.509 15.36 134.37 15.6587 134.093 15.872C133.837 16.064 133.463 16.16 132.973 16.16H122.701V13.856H131.693L131.181 14.336C131.181 13.3547 131.031 12.5333 130.733 11.872C130.455 11.2107 130.039 10.7093 129.485 10.368C128.951 10.0053 128.279 9.824 127.469 9.824C126.573 9.824 125.805 10.0373 125.165 10.464C124.546 10.8693 124.066 11.456 123.725 12.224C123.405 12.9707 123.245 13.8667 123.245 14.912V15.136C123.245 16.8853 123.65 18.1973 124.461 19.072C125.293 19.9253 126.509 20.352 128.109 20.352C128.663 20.352 129.282 20.288 129.965 20.16C130.669 20.0107 131.33 19.7653 131.949 19.424C132.397 19.168 132.791 19.0613 133.133 19.104C133.474 19.1253 133.741 19.2427 133.933 19.456C134.146 19.6693 134.274 19.936 134.317 20.256C134.359 20.5547 134.295 20.864 134.125 21.184C133.975 21.504 133.709 21.7813 133.325 22.016C132.578 22.4853 131.714 22.8373 130.733 23.072C129.773 23.2853 128.877 23.392 128.045 23.392Z" fill="white"/>
<path d="M110.099 23.328C109.438 23.328 108.926 23.1573 108.563 22.816C108.222 22.4533 108.051 21.9413 108.051 21.28V9.184C108.051 8.52267 108.222 8.02133 108.563 7.68C108.905 7.33867 109.385 7.168 110.003 7.168C110.622 7.168 111.102 7.33867 111.443 7.68C111.785 8.02133 111.955 8.52267 111.955 9.184V11.2H111.635C111.934 9.92 112.521 8.94933 113.396 8.288C114.27 7.62667 115.433 7.232 116.883 7.104C117.331 7.06133 117.683 7.17867 117.939 7.456C118.217 7.712 118.377 8.11733 118.419 8.672C118.462 9.20533 118.334 9.64267 118.035 9.984C117.758 10.304 117.331 10.496 116.755 10.56L116.051 10.624C114.75 10.752 113.769 11.1573 113.107 11.84C112.446 12.5013 112.115 13.44 112.115 14.656V21.28C112.115 21.9413 111.945 22.4533 111.604 22.816C111.262 23.1573 110.761 23.328 110.099 23.328Z" fill="white"/>
<path d="M95.7035 23.392C94.5728 23.392 93.5595 23.1787 92.6635 22.752C91.7888 22.304 91.0955 21.7067 90.5835 20.96C90.0928 20.2133 89.8475 19.3707 89.8475 18.432C89.8475 17.28 90.1462 16.3733 90.7435 15.712C91.3408 15.0293 92.3115 14.5387 93.6555 14.24C94.9995 13.9413 96.8022 13.792 99.0635 13.792H100.663V16.096H99.0955C97.7728 16.096 96.7168 16.16 95.9275 16.288C95.1382 16.416 94.5728 16.64 94.2315 16.96C93.9115 17.2587 93.7515 17.6853 93.7515 18.24C93.7515 18.944 93.9968 19.52 94.4875 19.968C94.9782 20.416 95.6608 20.64 96.5355 20.64C97.2395 20.64 97.8582 20.48 98.3915 20.16C98.9462 19.8187 99.3835 19.36 99.7035 18.784C100.023 18.208 100.183 17.5467 100.183 16.8V13.12C100.183 12.0533 99.9488 11.2853 99.4795 10.816C99.0102 10.3467 98.2208 10.112 97.1115 10.112C96.4928 10.112 95.8208 10.1867 95.0955 10.336C94.3915 10.4853 93.6448 10.7413 92.8555 11.104C92.4502 11.296 92.0875 11.3493 91.7675 11.264C91.4688 11.1787 91.2342 11.008 91.0635 10.752C90.8928 10.4747 90.8075 10.176 90.8075 9.856C90.8075 9.536 90.8928 9.22666 91.0635 8.928C91.2342 8.608 91.5222 8.37333 91.9275 8.224C92.9088 7.81866 93.8475 7.53066 94.7435 7.35999C95.6608 7.18933 96.4928 7.104 97.2395 7.104C98.7755 7.104 100.034 7.33866 101.015 7.808C102.018 8.27733 102.765 8.992 103.255 9.952C103.746 10.8907 103.992 12.1067 103.992 13.6V21.28C103.992 21.9413 103.831 22.4533 103.511 22.816C103.191 23.1573 102.733 23.328 102.135 23.328C101.538 23.328 101.069 23.1573 100.727 22.816C100.407 22.4533 100.247 21.9413 100.247 21.28V19.744H100.503C100.354 20.4907 100.055 21.1413 99.6075 21.696C99.1808 22.2293 98.6368 22.6453 97.9755 22.944C97.3142 23.2427 96.5568 23.392 95.7035 23.392Z" fill="white"/>
<path d="M69.6307 23.328C69.0974 23.328 68.6387 23.2 68.2547 22.944C67.8707 22.6667 67.5614 22.24 67.3267 21.664L62.6867 9.824C62.4947 9.312 62.4308 8.864 62.4948 8.48C62.5801 8.07466 62.7827 7.75466 63.1027 7.52C63.4227 7.28533 63.8494 7.168 64.3827 7.168C64.8521 7.168 65.2361 7.28533 65.5347 7.52C65.8334 7.73333 66.0894 8.14933 66.3027 8.768L70.1747 19.424H69.4387L73.4388 8.512C73.6094 8.04266 73.8334 7.70133 74.1107 7.488C74.4094 7.27467 74.7934 7.168 75.2627 7.168C75.7321 7.168 76.1161 7.28533 76.4147 7.52C76.7134 7.73333 76.9374 8.064 77.0867 8.512L81.0228 19.424H80.3507L84.2547 8.672C84.4681 8.096 84.7347 7.70133 85.0547 7.488C85.3961 7.27467 85.7694 7.168 86.1747 7.168C86.6867 7.168 87.0814 7.296 87.3587 7.552C87.6361 7.808 87.7961 8.13867 87.8387 8.544C87.8814 8.928 87.8067 9.35466 87.6147 9.824L83.0067 21.664C82.7934 22.2187 82.4841 22.6347 82.0788 22.912C81.6948 23.1893 81.2361 23.328 80.7027 23.328C80.1694 23.328 79.7001 23.1893 79.2947 22.912C78.9107 22.6347 78.6121 22.2187 78.3987 21.664L74.2067 10.56H76.0307L71.9347 21.632C71.7214 22.208 71.4227 22.6347 71.0387 22.912C70.6547 23.1893 70.1854 23.328 69.6307 23.328Z" fill="white"/>
<path d="M53.7318 23.392C52.4091 23.392 51.2464 23.0613 50.2438 22.4C49.2624 21.7387 48.6118 20.8533 48.2918 19.744L48.6437 18.944V21.28C48.6437 21.9413 48.4731 22.4533 48.1318 22.816C47.7904 23.1573 47.3104 23.328 46.6917 23.328C46.0517 23.328 45.5611 23.1573 45.2197 22.816C44.8784 22.4533 44.7078 21.9413 44.7078 21.28V2.272C44.7078 1.61066 44.8784 1.10933 45.2197 0.767998C45.5611 0.426664 46.0517 0.255997 46.6917 0.255997C47.3317 0.255997 47.8224 0.426664 48.1637 0.767998C48.5264 1.10933 48.7078 1.61066 48.7078 2.272V10.592H48.3237C48.6651 9.54667 49.3264 8.704 50.3078 8.064C51.2891 7.424 52.4304 7.104 53.7318 7.104C55.1184 7.104 56.3238 7.43466 57.3478 8.096C58.3718 8.75733 59.1718 9.696 59.7478 10.912C60.3238 12.1067 60.6118 13.5467 60.6118 15.232C60.6118 16.896 60.3238 18.3467 59.7478 19.584C59.1718 20.8 58.3611 21.7387 57.3158 22.4C56.2917 23.0613 55.0971 23.392 53.7318 23.392ZM52.6118 20.352C53.4011 20.352 54.0944 20.16 54.6917 19.776C55.2891 19.392 55.7478 18.8267 56.0678 18.08C56.4091 17.312 56.5798 16.3627 56.5798 15.232C56.5798 13.5253 56.2171 12.256 55.4917 11.424C54.7664 10.5707 53.8064 10.144 52.6118 10.144C51.8224 10.144 51.1291 10.336 50.5317 10.72C49.9344 11.0827 49.4651 11.648 49.1238 12.416C48.8038 13.1627 48.6437 14.1013 48.6437 15.232C48.6437 16.9173 49.0064 18.1973 49.7318 19.072C50.4571 19.9253 51.4171 20.352 52.6118 20.352Z" fill="white"/>
<path d="M31.8405 23.392C30.5392 23.392 29.4618 23.1573 28.6085 22.688C27.7552 22.1973 27.1152 21.472 26.6885 20.512C26.2832 19.552 26.0805 18.3573 26.0805 16.928V9.184C26.0805 8.50133 26.2512 8 26.5925 7.68C26.9338 7.33866 27.4245 7.168 28.0645 7.168C28.7045 7.168 29.1952 7.33866 29.5365 7.68C29.8992 8 30.0805 8.50133 30.0805 9.184V16.992C30.0805 18.1013 30.3045 18.9227 30.7525 19.456C31.2005 19.9893 31.9152 20.256 32.8965 20.256C33.9632 20.256 34.8378 19.8933 35.5205 19.168C36.2032 18.4213 36.5445 17.44 36.5445 16.224V9.184C36.5445 8.50133 36.7152 8 37.0565 7.68C37.3978 7.33866 37.8885 7.168 38.5285 7.168C39.1685 7.168 39.6592 7.33866 40.0005 7.68C40.3632 8 40.5445 8.50133 40.5445 9.184V21.28C40.5445 22.6453 39.8938 23.328 38.5925 23.328C37.9738 23.328 37.4938 23.1573 37.1525 22.816C36.8112 22.4533 36.6405 21.9413 36.6405 21.28V18.848L37.0885 19.808C36.6405 20.96 35.9578 21.8453 35.0405 22.464C34.1445 23.0827 33.0778 23.392 31.8405 23.392Z" fill="white"/>
<path d="M21.3018 23.392C19.5311 23.392 18.1978 22.8907 17.3018 21.888C16.4058 20.864 15.9578 19.3707 15.9578 17.408V2.272C15.9578 1.61066 16.1284 1.10933 16.4697 0.767998C16.8111 0.426664 17.3017 0.255997 17.9417 0.255997C18.5817 0.255997 19.0724 0.426664 19.4137 0.767998C19.7764 1.10933 19.9578 1.61066 19.9578 2.272V17.216C19.9578 18.1973 20.1604 18.9227 20.5658 19.392C20.9924 19.8613 21.5897 20.096 22.3577 20.096C22.5284 20.096 22.6884 20.096 22.8377 20.096C22.9871 20.0747 23.1364 20.0533 23.2858 20.032C23.5844 19.9893 23.7871 20.0747 23.8938 20.288C24.0004 20.48 24.0538 20.8853 24.0538 21.504C24.0538 22.0373 23.9471 22.4533 23.7338 22.752C23.5204 23.0507 23.1684 23.232 22.6777 23.296C22.4644 23.3173 22.2404 23.3387 22.0058 23.36C21.7711 23.3813 21.5364 23.392 21.3018 23.392Z" fill="white"/>
<path d="M8.096 23.392C6.45333 23.392 5.024 23.0613 3.808 22.4C2.592 21.7173 1.65333 20.7573 0.992 19.52C0.330667 18.2827 0 16.832 0 15.168C0 13.9093 0.181333 12.7893 0.544 11.808C0.928 10.8053 1.472 9.96266 2.176 9.28C2.88 8.576 3.73333 8.04266 4.736 7.67999C5.73867 7.296 6.85867 7.104 8.096 7.104C8.8 7.104 9.55733 7.2 10.368 7.392C11.2 7.584 11.9787 7.90399 12.704 8.352C13.0453 8.56533 13.2693 8.82133 13.376 9.12C13.4827 9.41866 13.504 9.728 13.44 10.048C13.376 10.3467 13.2373 10.6133 13.024 10.848C12.832 11.0613 12.5867 11.2 12.288 11.264C11.9893 11.3067 11.6587 11.232 11.296 11.04C10.8267 10.7627 10.3467 10.56 9.856 10.432C9.36533 10.2827 8.896 10.208 8.448 10.208C7.744 10.208 7.12533 10.3253 6.592 10.56C6.05867 10.7733 5.6 11.0933 5.216 11.52C4.85333 11.9253 4.576 12.4373 4.384 13.056C4.192 13.6747 4.096 14.3893 4.096 15.2C4.096 16.7787 4.46933 18.0267 5.216 18.944C5.984 19.84 7.06133 20.288 8.448 20.288C8.896 20.288 9.35467 20.224 9.824 20.096C10.3147 19.968 10.8053 19.7653 11.296 19.488C11.6587 19.296 11.9787 19.232 12.256 19.296C12.5547 19.36 12.8 19.5093 12.992 19.744C13.184 19.9573 13.3013 20.224 13.344 20.544C13.3867 20.8427 13.344 21.1413 13.216 21.44C13.1093 21.7387 12.896 21.984 12.576 22.176C11.872 22.6027 11.1253 22.912 10.336 23.104C9.54667 23.296 8.8 23.392 8.096 23.392Z" fill="white"/>
</svg>
